<svg width="32" height="32" viewBox="0 0 32 32" fill="none" xmlns="http://www.w3.org/2000/svg">
<path d="M6.55106 10.4986C11.7696 5.38929 20.2305 5.38929 25.449 10.4986L26.077 11.1136C26.338 11.369 26.338 11.7832 26.077 12.0387L23.9286 14.1422C23.7981 14.2699 23.5866 14.2699 23.4561 14.1422L22.5918 13.296C18.9513 9.73159 13.0488 9.73159 9.40819 13.296L8.48262 14.2022C8.35215 14.3299 8.14063 14.3299 8.01017 14.2022L5.86172 12.0987C5.60079 11.8432 5.60079 11.429 5.86172 11.1736L6.55106 10.4986ZM29.8922 14.8489L31.8043 16.7211C32.0652 16.9765 32.0652 17.3907 31.8043 17.6462L23.1824 26.0879C22.9215 26.3434 22.4984 26.3434 22.2375 26.0879C22.2375 26.0879 22.2375 26.0879 22.2375 26.0879L16.1182 20.0966C16.0529 20.0327 15.9472 20.0327 15.8819 20.0966C15.8819 20.0966 15.8819 20.0966 15.8819 20.0966L9.76276 26.0879C9.50184 26.3434 9.07879 26.3434 8.81786 26.0879C8.81786 26.0879 8.81786 26.0879 8.81786 26.0879L0.195694 17.6461C-0.0652314 17.3906 -0.0652314 16.9764 0.195694 16.721L2.10783 14.8488C2.36875 14.5934 2.7918 14.5934 3.05272 14.8488L9.17213 20.8402C9.23736 20.9041 9.34312 20.9041 9.40835 20.8402C9.40835 20.8402 9.40835 20.8402 9.40835 20.8402L15.5275 14.8488C15.7884 14.5933 16.2114 14.5933 16.4723 14.8488C16.4724 14.8488 16.4724 14.8488 16.4724 14.8488L22.5918 20.8402C22.657 20.9041 22.7627 20.9041 22.828 20.8402L28.9473 14.8489C29.2082 14.5935 29.6313 14.5935 29.8922 14.8489Z" fill="#3B99FC"/>
</svg>
