<svg width="32" height="32" viewBox="0 0 32 32" fill="none" xmlns="http://www.w3.org/2000/svg">
<path d="M27.5302 3.56555L17.5365 10.988L19.3846 6.60887L27.5302 3.56555Z" fill="#E2761B" stroke="#E2761B" stroke-linecap="round" stroke-linejoin="round"/>
<path d="M4.45959 3.56555L14.373 11.0583L12.6153 6.60887L4.45959 3.56555Z" fill="#E4761B" stroke="#E4761B" stroke-linecap="round" stroke-linejoin="round"/>
<path d="M23.9352 20.7708L21.2736 24.8486L26.9685 26.4154L28.6056 20.8611L23.9352 20.7708Z" fill="#E4761B" stroke="#E4761B" stroke-linecap="round" stroke-linejoin="round"/>
<path d="M3.40503 20.8611L5.03215 26.4154L10.7271 24.8486L8.06542 20.7708L3.40503 20.8611Z" fill="#E4761B" stroke="#E4761B" stroke-linecap="round" stroke-linejoin="round"/>
<path d="M10.406 13.8806L8.81909 16.2811L14.4738 16.5322L14.273 10.4556L10.406 13.8806Z" fill="#E4761B" stroke="#E4761B" stroke-linecap="round" stroke-linejoin="round"/>
<path d="M21.5842 13.8808L17.6671 10.3855L17.5365 16.5324L23.1812 16.2813L21.5842 13.8808Z" fill="#E4761B" stroke="#E4761B" stroke-linecap="round" stroke-linejoin="round"/>
<path d="M10.7273 24.8486L14.1221 23.1914L11.1893 20.9014L10.7273 24.8486Z" fill="#E4761B" stroke="#E4761B" stroke-linecap="round" stroke-linejoin="round"/>
<path d="M17.8685 23.1914L21.2734 24.8486L20.8014 20.9014L17.8685 23.1914Z" fill="#E4761B" stroke="#E4761B" stroke-linecap="round" stroke-linejoin="round"/>
<path d="M21.2734 24.8488L17.8685 23.1915L18.1397 25.4112L18.1096 26.3453L21.2734 24.8488Z" fill="#D7C1B3" stroke="#D7C1B3" stroke-linecap="round" stroke-linejoin="round"/>
<path d="M10.7272 24.8488L13.891 26.3453L13.8709 25.4112L14.122 23.1915L10.7272 24.8488Z" fill="#D7C1B3" stroke="#D7C1B3" stroke-linecap="round" stroke-linejoin="round"/>
<path d="M13.9412 19.4349L11.1088 18.6013L13.1075 17.6873L13.9412 19.4349Z" fill="#233447" stroke="#233447" stroke-linecap="round" stroke-linejoin="round"/>
<path d="M18.0488 19.4349L18.8825 17.6873L20.8913 18.6013L18.0488 19.4349Z" fill="#233447" stroke="#233447" stroke-linecap="round" stroke-linejoin="round"/>
<path d="M10.7267 24.8486L11.2088 20.7708L8.06506 20.8611L10.7267 24.8486Z" fill="#CD6116" stroke="#CD6116" stroke-linecap="round" stroke-linejoin="round"/>
<path d="M20.791 20.7708L21.2731 24.8486L23.9348 20.8611L20.791 20.7708Z" fill="#CD6116" stroke="#CD6116" stroke-linecap="round" stroke-linejoin="round"/>
<path d="M23.1812 16.2811L17.5365 16.5322L18.0588 19.4349L18.8924 17.6873L20.9012 18.6013L23.1812 16.2811Z" fill="#CD6116" stroke="#CD6116" stroke-linecap="round" stroke-linejoin="round"/>
<path d="M11.1084 18.6013L13.1172 17.6873L13.9408 19.4349L14.4731 16.5322L8.81836 16.2811L11.1084 18.6013Z" fill="#CD6116" stroke="#CD6116" stroke-linecap="round" stroke-linejoin="round"/>
<path d="M8.81836 16.2811L11.1887 20.9013L11.1084 18.6013L8.81836 16.2811Z" fill="#E4751F" stroke="#E4751F" stroke-linecap="round" stroke-linejoin="round"/>
<path d="M20.9012 18.6013L20.8008 20.9013L23.1812 16.2811L20.9012 18.6013Z" fill="#E4751F" stroke="#E4751F" stroke-linecap="round" stroke-linejoin="round"/>
<path d="M14.4731 16.5322L13.9408 19.4349L14.6037 22.8599L14.7544 18.3502L14.4731 16.5322Z" fill="#E4751F" stroke="#E4751F" stroke-linecap="round" stroke-linejoin="round"/>
<path d="M17.5368 16.5322L17.2656 18.3401L17.3862 22.8599L18.0591 19.4349L17.5368 16.5322Z" fill="#E4751F" stroke="#E4751F" stroke-linecap="round" stroke-linejoin="round"/>
<path d="M18.0589 19.4351L17.386 22.8601L17.8681 23.1915L20.8009 20.9015L20.9014 18.6014L18.0589 19.4351Z" fill="#F6851B" stroke="#F6851B" stroke-linecap="round" stroke-linejoin="round"/>
<path d="M11.1088 18.6014L11.1891 20.9015L14.122 23.1915L14.6041 22.8601L13.9412 19.4351L11.1088 18.6014Z" fill="#F6851B" stroke="#F6851B" stroke-linecap="round" stroke-linejoin="round"/>
<path d="M18.1095 26.3453L18.1396 25.4112L17.8885 25.1902H14.1019L13.8709 25.4112L13.891 26.3453L10.7272 24.8488L11.832 25.7527L14.0718 27.3095H17.9186L20.1685 25.7527L21.2733 24.8488L18.1095 26.3453Z" fill="#C0AD9E" stroke="#C0AD9E" stroke-linecap="round" stroke-linejoin="round"/>
<path d="M17.868 23.1913L17.3859 22.8599H14.6037L14.1216 23.1913L13.8705 25.411L14.1015 25.1901H17.888L18.1391 25.411L17.868 23.1913Z" fill="#161616" stroke="#161616" stroke-linecap="round" stroke-linejoin="round"/>
<path d="M27.9525 11.4701L28.8062 7.37221L27.5307 3.56555L17.8684 10.7369L21.5847 13.8807L26.8376 15.4174L28.0027 14.0615L27.5005 13.6999L28.304 12.9667L27.6813 12.4846L28.4848 11.8719L27.9525 11.4701Z" fill="#763D16" stroke="#763D16" stroke-linecap="round" stroke-linejoin="round"/>
<path d="M3.19397 7.37221L4.0477 11.4701L3.50533 11.8719L4.30885 12.4846L3.69617 12.9667L4.49968 13.6999L3.99749 14.0615L5.15254 15.4174L10.4055 13.8807L14.1218 10.7369L4.45951 3.56555L3.19397 7.37221Z" fill="#763D16" stroke="#763D16" stroke-linecap="round" stroke-linejoin="round"/>
<path d="M26.8372 15.4175L21.5842 13.8807L23.1812 16.2812L20.8008 20.9015L23.9345 20.8613H28.6049L26.8372 15.4175Z" fill="#F6851B" stroke="#F6851B" stroke-linecap="round" stroke-linejoin="round"/>
<path d="M10.4057 13.8807L5.15268 15.4175L3.40503 20.8613H8.06542L11.1891 20.9015L8.81871 16.2812L10.4057 13.8807Z" fill="#F6851B" stroke="#F6851B" stroke-linecap="round" stroke-linejoin="round"/>
<path d="M17.5366 16.5323L17.8681 10.7369L19.3948 6.60889H12.6151L14.1217 10.7369L14.4732 16.5323L14.5938 18.3603L14.6038 22.86H17.386L17.4061 18.3603L17.5366 16.5323Z" fill="#F6851B" stroke="#F6851B" stroke-linecap="round" stroke-linejoin="round"/>
</svg>
